<svg width="40" height="40" viewBox="0 0 40 40" fill="none" xmlns="http://www.w3.org/2000/svg">
<rect width="40" height="40" rx="6" fill="#01093F"/>
<g clip-path="url(#clip0_630_4156)">
<path opacity="0.99" fill-rule="evenodd" clip-rule="evenodd" d="M13.0273 9.98047C16.0091 9.98047 18.9909 9.98047 21.9727 9.98047C22.0795 10.0275 22.1836 10.0861 22.2852 10.1562C23.712 11.5701 25.1248 12.9959 26.5234 14.4336C26.5918 14.5409 26.6309 14.658 26.6406 14.7852C26.6667 16.1133 26.6667 17.4414 26.6406 18.7695C26.5604 19.1493 26.3325 19.3902 25.957 19.4922C23.651 19.5281 21.8866 20.5112 20.6641 22.4414C19.5198 24.6434 19.611 26.7919 20.9375 28.8867C21.0252 29.4016 20.8364 29.7662 20.3711 29.9805C17.9362 29.9805 15.5013 29.9805 13.0664 29.9805C11.196 29.5684 10.1673 28.4096 9.98047 26.5039C9.98047 22.155 9.98047 17.806 9.98047 13.457C10.1628 11.5689 11.1784 10.4101 13.0273 9.98047ZM21.2305 11.6992C21.2716 11.6934 21.3106 11.6999 21.3477 11.7188C22.5261 12.8971 23.7044 14.0755 24.8828 15.2539C24.9017 15.2909 24.9082 15.33 24.9023 15.3711C23.6784 15.3711 22.4544 15.3711 21.2305 15.3711C21.2305 14.1471 21.2305 12.9232 21.2305 11.6992ZM13.8086 19.707C15.4753 19.7005 17.142 19.707 18.8086 19.7266C19.3543 19.8609 19.5822 20.2059 19.4922 20.7617C19.3872 21.101 19.1593 21.3029 18.8086 21.3672C17.1419 21.3932 15.4753 21.3932 13.8086 21.3672C13.2507 21.2218 13.0228 20.8637 13.125 20.293C13.2532 19.9756 13.4811 19.7803 13.8086 19.707ZM13.7695 24.0039C14.9936 23.9974 16.2175 24.0039 17.4414 24.0234C17.9096 24.1528 18.1375 24.4588 18.125 24.9414C18.0356 25.3563 17.7817 25.5972 17.3633 25.6641C16.125 25.7014 14.888 25.6883 13.6523 25.625C13.1014 25.3392 12.9646 24.916 13.2422 24.3555C13.393 24.1928 13.5687 24.0756 13.7695 24.0039Z" fill="white"/>
<path opacity="0.979" fill-rule="evenodd" clip-rule="evenodd" d="M29.9805 24.941C29.9805 24.98 29.9805 25.0191 29.9805 25.0582C29.9488 25.37 29.8381 25.6564 29.6485 25.9175C28.8782 26.8656 27.9211 27.5491 26.7774 27.9683C25.6429 28.2697 24.5752 28.1134 23.5743 27.4996C22.8975 27.0574 22.292 26.53 21.7579 25.9175C21.3988 25.3606 21.3728 24.7877 21.6797 24.1988C22.4035 23.2666 23.3085 22.57 24.3946 22.1089C25.5998 21.7148 26.7456 21.845 27.8321 22.4996C28.5088 22.9418 29.1143 23.4691 29.6485 24.0816C29.8381 24.3427 29.9488 24.6292 29.9805 24.941ZM25.4493 23.8472C26.0788 23.7745 26.5281 24.0219 26.7969 24.5894C26.9761 25.2791 26.7482 25.7804 26.1133 26.0933C25.3434 26.2781 24.8291 25.9981 24.5704 25.2535C24.4975 24.5523 24.7905 24.0835 25.4493 23.8472Z" fill="white"/>
</g>
<defs>
<clipPath id="clip0_630_4156">
<rect width="20" height="20" fill="white" transform="translate(10 10)"/>
</clipPath>
</defs>
</svg>
