<svg width="18" height="18" viewBox="0 0 18 18" fill="none" xmlns="http://www.w3.org/2000/svg">
<g clip-path="url(#clip0_1523_3498)">
<path fill-rule="evenodd" clip-rule="evenodd" d="M2.17925 0.603516C2.15067 0.603516 2.0432 0.970513 1.93916 1.41983C1.83512 1.868 1.68649 2.50595 1.60875 2.83637C1.27948 4.23233 1.148 4.79711 1.01538 5.38477C0.986797 5.51053 0.909054 5.84551 0.841599 6.12905C0.775288 6.41258 0.697544 6.74757 0.668962 6.87333C0.523764 7.52387 0.372849 8.15268 0.323688 8.30931C0.257376 8.51967 0.250517 8.6946 0.311111 8.66716C0.333977 8.65687 0.502041 8.57684 0.683825 8.49109C0.865608 8.4042 1.16286 8.26586 1.3435 8.1824C1.52529 8.10008 2.19068 7.79368 2.82293 7.50329C3.45402 7.21175 4.11942 6.90649 4.3012 6.82417C4.48299 6.74071 4.77567 6.60694 4.95288 6.52577C5.12895 6.4446 5.28672 6.39201 5.30387 6.40915C5.32102 6.42516 5.23756 6.79444 5.12094 7.2289C5.00318 7.66335 4.63847 9.01129 4.31035 10.2232C3.98337 11.4362 3.67468 12.5692 3.62666 12.743C3.52148 13.118 2.69602 16.1649 1.64876 20.0441C1.23146 21.5875 0.776432 23.2693 0.63695 23.7815C0.497468 24.2937 0.383139 24.7373 0.383139 24.7681C0.383139 24.8265 1.21889 24.8482 4.29777 24.8699L6.1762 24.8825L6.20593 24.6961C6.22193 24.5944 6.27567 24.2399 6.32483 23.9095C6.37514 23.5791 6.43916 23.1527 6.47003 22.964C6.49975 22.7754 6.77072 20.985 7.07254 18.9842C7.37437 16.9846 7.66134 15.0902 7.70822 14.7758C7.87514 13.6816 8.0169 12.7419 8.10379 12.1576C8.15181 11.8341 8.22727 11.3367 8.27072 11.0532C8.31416 10.7697 8.50052 9.54063 8.68459 8.32188C8.86866 7.10313 9.02758 6.11419 9.03901 6.12562C9.05501 6.14162 9.6621 10.0597 9.91248 11.7701C9.94221 11.9747 10.0211 12.4892 10.0851 12.9145C10.1503 13.3398 10.228 13.8554 10.2578 14.0601C10.2875 14.2647 10.3504 14.6774 10.3961 14.9758C10.4418 15.2754 10.7928 17.5951 11.1747 20.1298C11.5565 22.6656 11.8824 24.7761 11.8984 24.8207C11.9224 24.8893 12.3523 24.8962 14.8058 24.863C16.3892 24.8425 17.6926 24.8162 17.704 24.8059C17.7143 24.7956 17.6983 24.711 17.6697 24.6195C17.64 24.5281 17.313 23.3322 16.9437 21.9625C16.5745 20.5917 16.0451 18.6344 15.7673 17.61C15.4883 16.5867 14.9098 14.4476 14.4799 12.8573C13.2806 8.42135 12.8302 6.76701 12.8004 6.68812C12.7559 6.5715 12.853 6.60008 13.4521 6.8779C14.9864 7.58789 15.2768 7.72051 15.6552 7.89201C16.2429 8.15725 16.7162 8.37676 17.0866 8.55626C17.289 8.65344 17.4799 8.73461 17.5085 8.73461C17.5691 8.73461 17.5474 8.58713 17.4159 8.07608C17.321 7.70908 17.1495 6.97737 16.9186 5.95755C16.89 5.83179 16.8157 5.50938 16.7528 5.24185C16.6888 4.97318 16.5973 4.58103 16.5482 4.36838C16.3252 3.40001 16.2006 2.86609 15.9799 1.92059C15.9033 1.59018 15.8084 1.18431 15.7707 1.01853C15.7318 0.852753 15.677 0.717845 15.6461 0.717845C15.5809 0.717845 15.4026 0.815025 13.3012 2.00519C11.6926 2.9164 11.3908 3.08675 10.8466 3.38858C10.6968 3.47204 10.3149 3.68812 9.99937 3.86876C9.68383 4.04826 9.32369 4.25062 9.20021 4.31579L8.97384 4.43698L8.68344 4.27234C8.52338 4.18202 8.28901 4.0494 8.1621 3.97966C8.03634 3.90877 7.81683 3.78644 7.67392 3.70641C7.53215 3.62752 6.58893 3.09475 5.57826 2.52196C3.52948 1.36038 3.30311 1.23347 2.85151 0.987662C2.67773 0.892769 2.46736 0.767007 2.38276 0.709842C2.2993 0.651534 2.20783 0.603516 2.17925 0.603516Z" fill="#00163E"/>
<mask id="mask0_1523_3498" style="mask-type:luminance" maskUnits="userSpaceOnUse" x="0" y="0" width="19" height="21">
<path d="M0.0239258 0.359375H18.0239V20.2495H0.0239258V0.359375Z" fill="white"/>
</mask>
<g mask="url(#mask0_1523_3498)">
<path d="M1.90923 0.25C1.88065 0.25 1.77318 0.616997 1.66914 1.06631C1.5651 1.51448 1.41647 2.15244 1.33873 2.48285C1.00946 3.87881 0.877982 4.4436 0.74536 5.03125C0.716778 5.15701 0.639035 5.492 0.571581 5.77553C0.505269 6.05907 0.427526 6.39406 0.398943 6.51982C0.253745 7.17035 0.102831 7.79916 0.0536689 7.95579C-0.0126424 8.16615 -0.0195034 8.34107 0.0410916 8.31364C0.0639576 8.30335 0.232022 8.22332 0.413805 8.13757C0.595589 8.05069 0.892842 7.91235 1.07348 7.82889C1.25527 7.74657 1.92066 7.44017 2.5529 7.14977C3.184 6.85823 3.84939 6.55297 4.03118 6.47065C4.21296 6.38719 4.50565 6.25343 4.68286 6.17225C4.85893 6.09108 5.0167 6.03849 5.03385 6.05564C5.051 6.07165 4.96754 6.44093 4.85092 6.87538C4.73316 7.30983 4.36845 8.65777 4.04033 9.86966C3.71335 11.0827 3.40466 12.2157 3.35664 12.3895C3.25146 12.7645 2.426 15.8114 1.37874 19.6905C0.961438 21.234 0.506411 22.9158 0.366929 23.428C0.227447 23.9402 0.113116 24.3838 0.113116 24.4146C0.113116 24.4729 0.948865 24.4947 4.02775 24.5164L5.90618 24.529L5.93591 24.3426C5.95191 24.2408 6.00565 23.8864 6.05481 23.556C6.10511 23.2256 6.16914 22.7992 6.20001 22.6105C6.22973 22.4219 6.5007 20.6315 6.80253 18.6307C7.10436 16.6311 7.39132 14.7367 7.4382 14.4223C7.60512 13.3281 7.74688 12.3883 7.83377 11.8041C7.88179 11.4806 7.95725 10.9832 8.00069 10.6997C8.04414 10.4162 8.2305 9.18712 8.41457 7.96837C8.59864 6.74962 8.75755 5.76066 8.76899 5.7721C8.78499 5.7881 9.39208 9.70617 9.64246 11.4165C9.67219 11.6212 9.75108 12.1357 9.8151 12.561C9.88027 12.9863 9.95801 13.5019 9.98774 13.7066C10.0175 13.9112 10.0803 14.3239 10.1261 14.6223C10.1718 14.9219 10.5228 17.2416 10.9047 19.7763C11.2865 22.3121 11.6124 24.4226 11.6284 24.4672C11.6524 24.5358 12.0822 24.5427 14.5358 24.5095C16.1192 24.4889 17.4226 24.4627 17.434 24.4524C17.4443 24.4421 17.4283 24.3575 17.3997 24.266C17.37 24.1745 17.043 22.9787 16.6737 21.609C16.3044 20.2382 15.7751 18.2809 15.4973 17.2565C15.2183 16.2332 14.6398 14.0941 14.2099 12.5038C13.0106 8.06783 12.5601 6.41349 12.5304 6.33461C12.4858 6.21799 12.583 6.24657 13.1821 6.52439C14.7164 7.23437 15.0068 7.36699 15.3852 7.53849C15.9729 7.80373 16.4462 8.02324 16.8166 8.20274C17.019 8.29992 17.2099 8.38109 17.2385 8.38109C17.2991 8.38109 17.2774 8.23362 17.1459 7.72257C17.051 7.35557 16.8795 6.62386 16.6486 5.60404C16.62 5.47828 16.5457 5.15587 16.4828 4.88834C16.4188 4.61967 16.3273 4.22751 16.2781 4.01486C16.0552 3.04649 15.9306 2.51258 15.7099 1.56707C15.6333 1.23666 15.5384 0.830793 15.5007 0.665016C15.4618 0.499238 15.4069 0.364332 15.3761 0.364332C15.3109 0.364332 15.1326 0.461512 13.0312 1.65168C11.4226 2.56288 11.1207 2.73323 10.5765 3.03506C10.4268 3.11852 10.0449 3.33461 9.72935 3.51525C9.4138 3.69475 9.05367 3.8971 8.93019 3.96227L8.70382 4.08346L8.41342 3.91883C8.25336 3.82851 8.01898 3.69589 7.89208 3.62615C7.76632 3.55526 7.54681 3.43293 7.4039 3.3529C7.26213 3.27401 6.31891 2.74123 5.30824 2.16844C3.25946 1.00685 3.03309 0.879953 2.58149 0.634145C2.40771 0.539251 2.19734 0.413491 2.11274 0.356326C2.02928 0.298019 1.93781 0.25 1.90923 0.25Z" stroke="#00163E" stroke-width="0.22" stroke-linecap="round" stroke-linejoin="round"/>
</g>
</g>
<defs>
<clipPath id="clip0_1523_3498">
<rect width="18" height="16.875" fill="white" transform="translate(0 0.25)"/>
</clipPath>
</defs>
</svg>
