<svg width="21" height="22" viewBox="0 0 21 22" fill="none" xmlns="http://www.w3.org/2000/svg">
<g clip-path="url(#clip0_1422_2238)">
<path d="M18.7031 2.57129H2.29688C1.61731 2.57129 1.06641 3.12219 1.06641 3.80176V19.9619C1.06641 20.6415 1.61731 21.1924 2.29688 21.1924H18.7031C19.3827 21.1924 19.9336 20.6415 19.9336 19.9619V3.80176C19.9336 3.12219 19.3827 2.57129 18.7031 2.57129Z" fill="#F7F7F7"/>
<path d="M18.7031 2.57129H2.29688C1.97053 2.57129 1.65756 2.70093 1.4268 2.93169C1.19604 3.16244 1.06641 3.47542 1.06641 3.80176V7.04199H19.9336V3.80176C19.9336 3.47542 19.804 3.16244 19.5732 2.93169C19.3424 2.70093 19.0295 2.57129 18.7031 2.57129Z" fill="#FF6666"/>
<path d="M4.75781 8.8877H3.32227C3.09574 8.8877 2.91211 9.07133 2.91211 9.29785V10.7334C2.91211 10.9599 3.09574 11.1436 3.32227 11.1436H4.75781C4.98434 11.1436 5.16797 10.9599 5.16797 10.7334V9.29785C5.16797 9.07133 4.98434 8.8877 4.75781 8.8877Z" fill="#DEDEDE"/>
<path d="M8.85938 8.8877H7.42383C7.19731 8.8877 7.01367 9.07133 7.01367 9.29785V10.7334C7.01367 10.9599 7.19731 11.1436 7.42383 11.1436H8.85938C9.0859 11.1436 9.26953 10.9599 9.26953 10.7334V9.29785C9.26953 9.07133 9.0859 8.8877 8.85938 8.8877Z" fill="#DEDEDE"/>
<path d="M12.9609 8.8877H11.5254C11.2989 8.8877 11.1152 9.07133 11.1152 9.29785V10.7334C11.1152 10.9599 11.2989 11.1436 11.5254 11.1436H12.9609C13.1875 11.1436 13.3711 10.9599 13.3711 10.7334V9.29785C13.3711 9.07133 13.1875 8.8877 12.9609 8.8877Z" fill="#DEDEDE"/>
<path d="M17.0625 8.8877H15.627C15.4004 8.8877 15.2168 9.07133 15.2168 9.29785V10.7334C15.2168 10.9599 15.4004 11.1436 15.627 11.1436H17.0625C17.289 11.1436 17.4727 10.9599 17.4727 10.7334V9.29785C17.4727 9.07133 17.289 8.8877 17.0625 8.8877Z" fill="#DEDEDE"/>
<path d="M4.75781 12.9893H3.32227C3.09574 12.9893 2.91211 13.1729 2.91211 13.3994V14.835C2.91211 15.0615 3.09574 15.2451 3.32227 15.2451H4.75781C4.98434 15.2451 5.16797 15.0615 5.16797 14.835V13.3994C5.16797 13.1729 4.98434 12.9893 4.75781 12.9893Z" fill="#DEDEDE"/>
<path d="M8.85938 12.9893H7.42383C7.19731 12.9893 7.01367 13.1729 7.01367 13.3994V14.835C7.01367 15.0615 7.19731 15.2451 7.42383 15.2451H8.85938C9.0859 15.2451 9.26953 15.0615 9.26953 14.835V13.3994C9.26953 13.1729 9.0859 12.9893 8.85938 12.9893Z" fill="#DEDEDE"/>
<path d="M11.8081 15.5845C11.7677 15.5845 11.7277 15.5766 11.6904 15.5612C11.6531 15.5458 11.6192 15.5232 11.5907 15.4947L10.8655 14.7695C10.8078 14.7118 10.7754 14.6335 10.7754 14.5519C10.7754 14.4703 10.8078 14.392 10.8655 14.3343C10.9232 14.2766 11.0015 14.2442 11.0831 14.2442C11.1647 14.2442 11.243 14.2766 11.3007 14.3343L11.7716 14.804L13.1538 12.8865C13.2015 12.8203 13.2736 12.7758 13.3542 12.7627C13.4348 12.7497 13.5172 12.7692 13.5834 12.817C13.6496 12.8647 13.6941 12.9368 13.7072 13.0174C13.7202 13.098 13.7007 13.1804 13.6529 13.2466L12.0587 15.4569C12.0326 15.4931 11.9989 15.5232 11.96 15.5451C11.9211 15.567 11.878 15.5801 11.8335 15.5837C11.8245 15.5845 11.8163 15.5845 11.8081 15.5845Z" fill="#63EA86"/>
<path d="M17.0625 12.9893H15.627C15.4004 12.9893 15.2168 13.1729 15.2168 13.3994V14.835C15.2168 15.0615 15.4004 15.2451 15.627 15.2451H17.0625C17.289 15.2451 17.4727 15.0615 17.4727 14.835V13.3994C17.4727 13.1729 17.289 12.9893 17.0625 12.9893Z" fill="#DEDEDE"/>
<path d="M4.75781 17.0908H3.32227C3.09574 17.0908 2.91211 17.2745 2.91211 17.501V18.9365C2.91211 19.163 3.09574 19.3467 3.32227 19.3467H4.75781C4.98434 19.3467 5.16797 19.163 5.16797 18.9365V17.501C5.16797 17.2745 4.98434 17.0908 4.75781 17.0908Z" fill="#DEDEDE"/>
<path d="M8.85938 17.0908H7.42383C7.19731 17.0908 7.01367 17.2745 7.01367 17.501V18.9365C7.01367 19.163 7.19731 19.3467 7.42383 19.3467H8.85938C9.0859 19.3467 9.26953 19.163 9.26953 18.9365V17.501C9.26953 17.2745 9.0859 17.0908 8.85938 17.0908Z" fill="#DEDEDE"/>
<path d="M12.9609 17.0908H11.5254C11.2989 17.0908 11.1152 17.2745 11.1152 17.501V18.9365C11.1152 19.163 11.2989 19.3467 11.5254 19.3467H12.9609C13.1875 19.3467 13.3711 19.163 13.3711 18.9365V17.501C13.3711 17.2745 13.1875 17.0908 12.9609 17.0908Z" fill="#DEDEDE"/>
<path d="M17.0625 17.0908H15.627C15.4004 17.0908 15.2168 17.2745 15.2168 17.501V18.9365C15.2168 19.163 15.4004 19.3467 15.627 19.3467H17.0625C17.289 19.3467 17.4727 19.163 17.4727 18.9365V17.501C17.4727 17.2745 17.289 17.0908 17.0625 17.0908Z" fill="#DEDEDE"/>
<path d="M16.3716 21.1927V18.8613C16.3716 18.535 16.5012 18.222 16.732 17.9913C16.9627 17.7605 17.2757 17.6309 17.6021 17.6309H19.9334L16.3716 21.1927Z" fill="#CECECE"/>
<path d="M4.63494 4.25293C4.91205 4.2525 5.17765 4.14211 5.37344 3.94601C5.56923 3.74992 5.6792 3.48414 5.6792 3.20703V2.57129H3.5874V3.20703C3.5874 3.34452 3.61451 3.48066 3.66717 3.60766C3.71984 3.73466 3.79702 3.85003 3.89432 3.94717C3.99161 4.04432 4.10711 4.12132 4.23419 4.17379C4.36127 4.22625 4.49745 4.25315 4.63494 4.25293Z" fill="#FF4E4E"/>
<path d="M5.06396 1.85352C5.06396 1.27588 4.5957 0.807617 4.01807 0.807617C3.44043 0.807617 2.97217 1.27588 2.97217 1.85352V3.20703C2.97217 3.78467 3.44043 4.25293 4.01807 4.25293C4.5957 4.25293 5.06396 3.78467 5.06396 3.20703V1.85352Z" fill="#EEEEEE"/>
<path d="M17.5955 4.25293C17.733 4.25315 17.8692 4.22625 17.9963 4.17379C18.1234 4.12132 18.2389 4.04432 18.3362 3.94717C18.4334 3.85003 18.5106 3.73466 18.5633 3.60766C18.616 3.48066 18.6431 3.34452 18.6431 3.20703V2.57129H16.5513V3.20703C16.5513 3.48414 16.6612 3.74992 16.857 3.94601C17.0528 4.14211 17.3184 4.2525 17.5955 4.25293Z" fill="#FF4E4E"/>
<path d="M18.0278 1.85352C18.0278 1.27588 17.5596 0.807617 16.9819 0.807617C16.4043 0.807617 15.936 1.27588 15.936 1.85352V3.20703C15.936 3.78467 16.4043 4.25293 16.9819 4.25293C17.5596 4.25293 18.0278 3.78467 18.0278 3.20703V1.85352Z" fill="#EEEEEE"/>
<path d="M16.9805 0.807618C16.8762 0.807477 16.7725 0.822961 16.6729 0.853556C16.8866 0.919528 17.0736 1.0522 17.2064 1.23214C17.3393 1.41209 17.411 1.62984 17.4111 1.85352V3.20703C17.411 3.43071 17.3393 3.64846 17.2064 3.8284C17.0736 4.00835 16.8866 4.14102 16.6729 4.20699C16.7725 4.23759 16.8762 4.25307 16.9805 4.25293C17.118 4.25315 17.2541 4.22625 17.3812 4.17379C17.5083 4.12132 17.6238 4.04432 17.7211 3.94718C17.8184 3.85003 17.8956 3.73466 17.9482 3.60766C18.0009 3.48066 18.028 3.34452 18.028 3.20703V1.85352C18.028 1.71603 18.0009 1.57989 17.9482 1.45289C17.8956 1.32589 17.8184 1.21052 17.7211 1.11337C17.6238 1.01623 17.5083 0.939226 17.3812 0.886761C17.2541 0.834297 17.118 0.807403 16.9805 0.807618Z" fill="#CECECE"/>
<path d="M11.1152 4.25293C11.3926 4.25293 11.6587 4.14274 11.8548 3.94659C12.0509 3.75045 12.1611 3.48442 12.1611 3.20703V2.57129H10.0693V3.20703C10.0693 3.48442 10.1795 3.75045 10.3757 3.94659C10.5718 4.14274 10.8378 4.25293 11.1152 4.25293Z" fill="#FF4E4E"/>
<path d="M11.5459 1.85352C11.5459 1.27588 11.0776 0.807617 10.5 0.807617C9.92237 0.807617 9.4541 1.27588 9.4541 1.85352V3.20703C9.4541 3.78467 9.92237 4.25293 10.5 4.25293C11.0776 4.25293 11.5459 3.78467 11.5459 3.20703V1.85352Z" fill="#EEEEEE"/>
<path d="M10.5 0.807618C10.3957 0.807476 10.2921 0.822961 10.1924 0.853556C10.4061 0.919527 10.5931 1.0522 10.7259 1.23214C10.8588 1.41209 10.9305 1.62984 10.9307 1.85352V3.20703C10.9305 3.43071 10.8588 3.64846 10.7259 3.8284C10.5931 4.00835 10.4061 4.14102 10.1924 4.20699C10.2921 4.23759 10.3957 4.25307 10.5 4.25293C10.7774 4.25293 11.0434 4.14274 11.2396 3.94659C11.4357 3.75045 11.5459 3.48442 11.5459 3.20703V1.85352C11.5459 1.57613 11.4357 1.3101 11.2396 1.11395C11.0434 0.917811 10.7774 0.807618 10.5 0.807618ZM4.01953 0.807618C3.91527 0.807476 3.81158 0.822961 3.71191 0.853556C3.92564 0.919527 4.11262 1.0522 4.24547 1.23214C4.37833 1.41209 4.45007 1.62984 4.4502 1.85352V3.20703C4.45007 3.43071 4.37833 3.64846 4.24547 3.8284C4.11262 4.00835 3.92564 4.14102 3.71191 4.20699C3.81158 4.23759 3.91527 4.25307 4.01953 4.25293C4.29664 4.2525 4.56224 4.14211 4.75803 3.94601C4.95382 3.74992 5.06379 3.48414 5.06379 3.20703V1.85352C5.06379 1.57641 4.95382 1.31063 4.75803 1.11453C4.56224 0.918437 4.29664 0.808053 4.01953 0.807618Z" fill="#CECECE"/>
</g>
<defs>
<clipPath id="clip0_1422_2238">
<rect width="21" height="21" fill="white" transform="translate(0 0.5)"/>
</clipPath>
</defs>
</svg>
