<svg width="20" height="22" viewBox="0 0 20 22" fill="none" xmlns="http://www.w3.org/2000/svg">
<path d="M14.5941 18.0025V20.506C14.5941 21.3312 13.9252 22.0001 13.1 22.0001H1.49407C0.668897 22.0001 0 21.3312 0 20.506V4.99407C0 4.1689 0.668897 3.5 1.49407 3.5H4.98024V16.5084C4.98024 17.3336 5.64914 18.0025 6.47432 18.0025H14.5941Z" fill="#C4C4C4"/>
<path d="M19.0765 4.46579V17.006C19.0765 17.8312 18.4076 18.5001 17.5825 18.5001H5.9765C5.15132 18.5001 4.48242 17.8312 4.48242 17.006V1.49407C4.48242 0.668897 5.15132 0 5.9765 0H14.7417L14.7915 0.0512965L14.7417 0.0996049V3.65401C14.7417 4.10233 15.1052 4.46579 15.5535 4.46579H18.9769L19.0282 4.41598L19.0765 4.46579Z" fill="#00163E"/>
<path d="M19.0282 4.41644L18.9769 4.46625H15.5535C15.1052 4.46625 14.7417 4.10279 14.7417 3.65447V0.100066L14.7915 0.0517578L19.0282 4.41644Z" fill="#CBCCCB"/>
<path d="M16.3263 10.617H6.9824C6.70734 10.617 6.48438 10.394 6.48438 10.1189C6.48438 9.84388 6.70734 9.62091 6.9824 9.62091H16.3263C16.6014 9.62091 16.8244 9.84388 16.8244 10.1189C16.8244 10.394 16.6014 10.617 16.3263 10.617ZM12.5762 7.83101H6.9824C6.70734 7.83101 6.48438 7.60804 6.48438 7.33299C6.48438 7.05793 6.70734 6.83496 6.9824 6.83496H12.5762C12.8513 6.83496 13.0742 7.05793 13.0742 7.33299C13.0742 7.60804 12.8513 7.83101 12.5762 7.83101ZM16.3263 13.6051H6.9824C6.70734 13.6051 6.48438 13.3821 6.48438 13.1071C6.48438 12.832 6.70734 12.6091 6.9824 12.6091H16.3263C16.6014 12.6091 16.8244 12.832 16.8244 13.1071C16.8244 13.3821 16.6014 13.6051 16.3263 13.6051Z" fill="white"/>
</svg>
