<svg width="23" height="18" viewBox="0 0 23 18" fill="none" xmlns="http://www.w3.org/2000/svg">
<path d="M11.5076 8.81645L22.8643 1.24591C22.7304 0.922838 22.5037 0.646713 22.2129 0.45242C21.9221 0.258127 21.5802 0.154384 21.2304 0.154297H1.76891C1.45474 0.155113 1.14652 0.239946 0.876181 0.400001C0.605845 0.560057 0.38324 0.789507 0.231445 1.06457L11.5076 8.81645Z" fill="#FF2839"/>
<path d="M11.991 10.6205C11.8439 10.7186 11.6708 10.7703 11.494 10.769C11.3173 10.7678 11.145 10.7136 10.9993 10.6135L0 3.05176V16.0768C0 16.5461 0.1864 16.9961 0.518196 17.3279C0.849991 17.6597 1.3 17.8461 1.76923 17.8461H21.2308C21.7 17.8461 22.15 17.6597 22.4818 17.3279C22.8136 16.9961 23 16.5461 23 16.0768V3.28087L11.991 10.6205Z" fill="#DADADA"/>
</svg>
