<svg xmlns="http://www.w3.org/2000/svg" version="1.1" xmlns:xlink="http://www.w3.org/1999/xlink" width="512" height="512" x="0" y="0" viewBox="0 0 68 68" style="enable-background:new 0 0 512 512" xml:space="preserve" class=""><g><path fill="#febb50" d="M59.755 12.276h-16.45l-3.472-6.423a3.497 3.497 0 0 0-3.077-1.834H13.078A3.498 3.498 0 0 0 9.58 7.516v34.44a5.829 5.829 0 0 0 5.83 5.829h44.345a5.828 5.828 0 0 0 5.83-5.828V18.105a5.828 5.828 0 0 0-5.83-5.83" opacity="1" data-original="#febb50" class=""></path><path fill="#ffffff" d="M15.41 44.797a2.139 2.139 0 0 1-2.14-2.14V11.676a3.265 3.265 0 0 1 3.265-3.265h18.16c1.2 0 2.302.658 2.872 1.713l3.538 6.544h18.65c1.181 0 2.138.958 2.138 2.139v23.852a2.139 2.139 0 0 1-2.138 2.139H15.41z" opacity="1" data-original="#ffffff" class=""></path><path fill="#f7ae4d" d="M59.973 19.46H35.924l-3.472-6.422a3.497 3.497 0 0 0-3.077-1.834H5.696A3.497 3.497 0 0 0 2.199 14.7v34.44a5.829 5.829 0 0 0 5.829 5.83h51.945a5.828 5.828 0 0 0 5.828-5.83V25.29a5.828 5.828 0 0 0-5.828-5.83" opacity="1" data-original="#f7ae4d" class=""></path><path fill="#43a2ff" d="M49.229 44.109h-.011a33.307 33.307 0 0 1-2.824 7.317 31.518 31.518 0 0 1-1.574 2.664c-.053.09-.117.19-.182.28a32.56 32.56 0 0 1-4.409 5.262 35.579 35.579 0 0 1-4.885 3.933c-.787.53-1.807.563-2.604.048a33.368 33.368 0 0 1-4.988-3.981c-5.08-4.878-11.2-13.665-10.098-27.186a2.346 2.346 0 0 1 2.415-2.158 19.28 19.28 0 0 0 6.463-.87 18.685 18.685 0 0 0 6.144-3.282 2.358 2.358 0 0 1 2.755-.15c.684.44 1.586.984 2.648 1.532 2.226 1.147 5.179 2.327 8.315 2.653.572.062 1.152.093 1.735.09 1.232-.006 2.242.977 2.308 2.207.013.238.024.492.033.76a38.78 38.78 0 0 1-1.241 10.88" opacity="1" data-original="#43a2ff" class=""></path><path fill="#008bea" d="M34 59.14a27.513 27.513 0 0 1-3.721-3.02c-4.167-4.002-8.938-10.974-8.25-21.592h.145c2.03 0 4.034-.307 5.96-.912a19.337 19.337 0 0 0 6.042-3.148 30.99 30.99 0 0 0 2.239 1.276c2.877 1.482 5.696 2.375 8.379 2.653.41.045.826.074 1.239.087l.002.067a32.045 32.045 0 0 1-.837 8.21l-.198.752a27.027 27.027 0 0 1-3.567 8.106l-.153.237a26.536 26.536 0 0 1-3.577 4.267A28.953 28.953 0 0 1 34 59.14" opacity="1" data-original="#008bea" class=""></path><path fill="#ffffff" d="M32.542 48.678c-.307 0-.615-.117-.849-.352l-2.643-2.643a1.202 1.202 0 0 1 1.699-1.699l1.793 1.794 4.718-4.718a1.202 1.202 0 0 1 1.7 1.7l-5.568 5.566a1.197 1.197 0 0 1-.85.352" opacity="1" data-original="#ffffff" class=""></path></g></svg>