<svg width="25" height="25" viewBox="0 0 25 25" fill="none" xmlns="http://www.w3.org/2000/svg">
<circle cx="12.5" cy="12.5" r="12" fill="#5CA3E1" stroke="white"/>
<g clip-path="url(#clip0_3415_1327)">
<rect width="13.3929" height="13.3929" transform="translate(5.35693 5.35693)" fill="#5CA3E1"/>
<path d="M16.1456 13.5418C15.7237 13.5421 15.3082 13.6451 14.9349 13.8419C14.5617 14.0387 14.242 14.3233 14.0033 14.6712L10.371 13.0312C10.629 12.4082 10.63 11.7085 10.3738 11.0848L14.0011 9.43631C14.3548 9.9479 14.8802 10.3158 15.4819 10.4732C16.0836 10.6306 16.7218 10.5671 17.2807 10.2943C17.8396 10.0215 18.2823 9.55735 18.5283 8.98613C18.7744 8.4149 18.8075 7.77441 18.6218 7.18083C18.4361 6.58725 18.0437 6.07989 17.516 5.7508C16.9882 5.4217 16.36 5.29266 15.7452 5.38708C15.1305 5.4815 14.5699 5.79313 14.1653 6.26544C13.7606 6.73776 13.5386 7.33946 13.5396 7.96142C13.5419 8.10863 13.5569 8.25537 13.5842 8.40004L9.72819 10.1523C9.35785 9.8053 8.89421 9.57406 8.39425 9.48696C7.89429 9.39987 7.37977 9.46071 6.91391 9.66201C6.44805 9.86332 6.05114 10.1963 5.77194 10.6201C5.49274 11.0439 5.34341 11.54 5.34229 12.0475C5.34118 12.555 5.48833 13.0518 5.76566 13.4768C6.043 13.9018 6.43844 14.2365 6.90341 14.4399C7.36838 14.6432 7.88263 14.7063 8.38297 14.6214C8.88331 14.5365 9.34795 14.3073 9.71982 13.962L13.5859 15.7075C13.559 15.8521 13.5443 15.9986 13.5418 16.1456C13.5417 16.6607 13.6944 17.1643 13.9805 17.5927C14.2666 18.0211 14.6734 18.355 15.1493 18.5521C15.6252 18.7493 16.1489 18.8009 16.6541 18.7005C17.1594 18.6 17.6235 18.352 17.9877 17.9877C18.352 17.6234 18.6 17.1593 18.7005 16.6541C18.801 16.1488 18.7493 15.6251 18.5522 15.1492C18.355 14.6733 18.0211 14.2666 17.5927 13.9805C17.1643 13.6943 16.6607 13.5417 16.1456 13.5418ZM16.1456 6.47314C16.44 6.47303 16.7278 6.56023 16.9726 6.72369C17.2174 6.88716 17.4083 7.11956 17.521 7.3915C17.6337 7.66344 17.6633 7.9627 17.6059 8.25143C17.5486 8.54017 17.4068 8.80541 17.1987 9.0136C16.9906 9.2218 16.7254 9.3636 16.4367 9.42107C16.148 9.47854 15.8487 9.4491 15.5767 9.33647C15.3048 9.22384 15.0723 9.03309 14.9087 8.78833C14.7452 8.54357 14.6579 8.2558 14.6579 7.96142C14.6582 7.5669 14.815 7.1886 15.0939 6.90957C15.3728 6.63055 15.7511 6.47359 16.1456 6.47314ZM7.96145 13.5418C7.66707 13.5419 7.37927 13.4547 7.13445 13.2912C6.88963 13.1278 6.69879 12.8954 6.58606 12.6234C6.47333 12.3515 6.44378 12.0522 6.50114 11.7635C6.5585 11.4748 6.7002 11.2095 6.90832 11.0013C7.11644 10.7931 7.38162 10.6513 7.67034 10.5939C7.95905 10.5364 8.25832 10.5658 8.5303 10.6785C8.80228 10.7911 9.03476 10.9818 9.19831 11.2266C9.36187 11.4714 9.44917 11.7591 9.44917 12.0535C9.44873 12.448 9.29186 12.8262 9.01297 13.1052C8.73408 13.3842 8.35593 13.5412 7.96145 13.5418ZM16.1456 17.6339C15.8512 17.6339 15.5635 17.5466 15.3188 17.383C15.074 17.2195 14.8833 16.9871 14.7706 16.7151C14.658 16.4432 14.6285 16.1439 14.6859 15.8552C14.7433 15.5665 14.8851 15.3013 15.0932 15.0932C15.3014 14.8851 15.5666 14.7433 15.8553 14.6859C16.144 14.6285 16.4432 14.6579 16.7151 14.7706C16.9871 14.8832 17.2195 15.074 17.3831 15.3187C17.5466 15.5635 17.6339 15.8512 17.6339 16.1456C17.6336 16.5402 17.4767 16.9186 17.1976 17.1976C16.9186 17.4767 16.5402 17.6336 16.1456 17.6339Z" fill="white"/>
</g>
<defs>
<clipPath id="clip0_3415_1327">
<rect width="13.3929" height="13.3929" fill="white" transform="translate(5.35693 5.35693)"/>
</clipPath>
</defs>
</svg>
