<svg width="21" height="14" viewBox="0 0 21 14" fill="none" xmlns="http://www.w3.org/2000/svg">
<mask id="mask0_2425_2864" style="mask-type:luminance" maskUnits="userSpaceOnUse" x="12" y="2" width="9" height="10">
<path d="M12.6279 2.08643H20.2743V11.469H12.6279V2.08643Z" fill="white"/>
</mask>
<g mask="url(#mask0_2425_2864)">
<path d="M18.5802 11.435H12.6704V2.9656C12.6704 2.49973 13.0503 2.11865 13.5147 2.11865H16.8918C17.145 2.11865 17.3983 2.24561 17.5672 2.45734L20.0999 5.71817C20.2265 5.88751 20.2688 6.05685 20.2688 6.22642V9.74115C20.2688 10.6729 19.5088 11.435 18.5802 11.435Z" fill="#FFC107"/>
</g>
<mask id="mask1_2425_2864" style="mask-type:luminance" maskUnits="userSpaceOnUse" x="1" y="0" width="12" height="12">
<path d="M1.69092 0H12.6842V11.4671H1.69092V0Z" fill="white"/>
</mask>
<g mask="url(#mask1_2425_2864)">
<path d="M3.38372 11.434H12.6705V1.69411C12.6705 0.762382 11.9108 0 10.9821 0H1.69531V9.74008C1.69531 10.6718 2.45506 11.434 3.38372 11.434Z" fill="#388E3C"/>
</g>
<mask id="mask2_2425_2864" style="mask-type:luminance" maskUnits="userSpaceOnUse" x="0" y="0" width="5" height="8">
<path d="M0 0H4.22819V7.22795H0V0Z" fill="white"/>
</mask>
<g mask="url(#mask2_2425_2864)">
<path d="M0.00585938 0H4.22722V0.846944H0.00585938V0ZM0.00585938 2.11758H4.22722V2.96453H0.00585938V2.11758ZM0.00585938 4.23494H4.22722V5.08189H0.00585938V4.23494ZM0.00585938 6.3523H4.22722V7.19925H0.00585938V6.3523Z" fill="#388E3C"/>
</g>
<path d="M1.69531 0.847656H8.4494V1.69482H1.69531V0.847656ZM1.69531 2.96524H6.76077V3.81218H1.69531V2.96524ZM1.69531 5.0826H5.07236V5.92954H1.69531V5.0826ZM1.69531 7.19996H3.38372V8.0469H1.69531V7.19996Z" fill="#DCEDC8"/>
<mask id="mask3_2425_2864" style="mask-type:luminance" maskUnits="userSpaceOnUse" x="4" y="9" width="15" height="5">
<path d="M4.62207 9.26123H18.6033V13.5498H4.62207V9.26123Z" fill="white"/>
</mask>
<g mask="url(#mask3_2425_2864)">
<path d="M16.469 9.31592C15.3033 9.31592 14.3584 10.2642 14.3584 11.4333C14.3584 12.6026 15.3033 13.5509 16.469 13.5509C17.6343 13.5509 18.5795 12.6026 18.5795 11.4333C18.5795 10.2642 17.6343 9.31592 16.469 9.31592ZM6.75998 9.31592C5.59459 9.31592 4.64941 10.2642 4.64941 11.4333C4.64941 12.6026 5.59459 13.5509 6.75998 13.5509C7.9256 13.5509 8.87055 12.6026 8.87055 11.4333C8.87055 10.2642 7.9256 9.31592 6.75998 9.31592Z" fill="#37474F"/>
</g>
<path d="M16.609 9.33203C16.0261 9.33203 15.5537 9.80606 15.5537 10.3907C15.5537 10.9756 16.0261 11.4496 16.609 11.4496C17.1919 11.4496 17.6643 10.9756 17.6643 10.3907C17.6643 9.80606 17.1919 9.33203 16.609 9.33203ZM6.90001 9.33203C6.31709 9.33203 5.84473 9.80606 5.84473 10.3907C5.84473 10.9756 6.31709 11.4496 6.90001 11.4496C7.48293 11.4496 7.9553 10.9756 7.9553 10.3907C7.9553 9.80606 7.48293 9.33203 6.90001 9.33203Z" fill="#78909C"/>
<path d="M18.5803 7.20005H17.0606C16.934 7.20005 16.8496 7.15766 16.7653 7.0731L16.1742 6.48006C16.0899 6.3955 16.0053 6.35311 15.8787 6.35311H14.3592C14.1057 6.35311 13.937 6.18376 13.937 5.92964V3.3888C13.937 3.13468 14.1057 2.96533 14.3592 2.96533H16.6807C16.8073 2.96533 16.934 3.0075 17.0185 3.13468L18.9181 5.42138C18.9602 5.50616 19.0025 5.59073 19.0025 5.67551V6.77658C19.0025 7.03071 18.8336 7.20005 18.5803 7.20005Z" fill="#455A64"/>
</svg>
