<svg xmlns="http://www.w3.org/2000/svg" version="1.1" xmlns:xlink="http://www.w3.org/1999/xlink" width="512" height="512" x="0" y="0" viewBox="0 0 512 512" style="enable-background:new 0 0 512 512" xml:space="preserve" class=""><g><path fill="#9cc0fd" d="M132.634 419.939c0 21.17-27.314 55.997-43.03 74.284-5.696 6.627-15.909 6.627-21.605 0-15.716-18.286-43.03-53.113-43.03-74.284 0-29.72 24.113-53.833 53.833-53.833 29.719 0 53.832 24.113 53.832 53.833z" opacity="1" data-original="#9cc0fd" class=""></path><path fill="#ffffff" d="M101.327 417.362c2.363 15.408-10.726 28.497-26.133 26.134-9.601-1.472-17.448-9.319-18.92-18.921-2.362-15.406 10.725-28.494 26.131-26.133 9.602 1.472 17.45 9.318 18.922 18.92z" opacity="1" data-original="#ffffff" class=""></path><path fill="#9cc0fd" d="M438.759 98.982c0 33.89-43.725 89.64-68.883 118.913-9.118 10.609-25.468 10.609-34.585 0-25.158-29.273-68.883-85.024-68.883-118.913 0-47.576 38.599-86.175 86.175-86.175s86.176 38.599 86.176 86.175z" opacity="1" data-original="#9cc0fd" class=""></path><path fill="#ffffff" d="M388.643 94.856c3.783 24.664-17.17 45.618-41.834 41.836-15.369-2.357-27.931-14.919-30.287-30.288-3.781-24.662 17.168-45.613 41.831-41.834 15.37 2.355 27.933 14.916 30.29 30.286z" opacity="1" data-original="#ffffff" class=""></path><path fill="#9cc0fd" d="M276.523 338.451c0 13.27-10.802 24.072-24.072 24.072-13.316 0-24.118-10.802-24.118-24.072 0-13.317 10.802-24.119 24.118-24.119 13.27 0 24.072 10.802 24.072 24.119z" opacity="1" data-original="#9cc0fd" class=""></path><g fill="#5c8ffc"><path d="M280.353 220.989a4.861 4.861 0 0 0-4.864 4.864 4.861 4.861 0 0 0 4.864 4.864h9.728a4.861 4.861 0 0 0 4.864-4.864 4.861 4.861 0 0 0-4.864-4.864zM183.546 220.989h-19.36a4.861 4.861 0 0 0-4.864 4.864 4.861 4.861 0 0 0 4.864 4.864h19.36c2.688 0 4.864-2.175 4.864-4.864s-2.176-4.864-4.864-4.864zM153.579 341.564a4.861 4.861 0 0 0 4.864 4.864h19.36a4.861 4.861 0 0 0 4.864-4.864 4.861 4.861 0 0 0-4.864-4.864h-19.36a4.861 4.861 0 0 0-4.864 4.864zM149.689 225.853a4.861 4.861 0 0 0-4.864-4.864l-19.441.01.166 9.728 19.275-.01a4.862 4.862 0 0 0 4.864-4.864zM184.895 499.193a4.861 4.861 0 0 0 4.864 4.864h19.36a4.861 4.861 0 0 0 4.864-4.864 4.861 4.861 0 0 0-4.864-4.864h-19.36a4.862 4.862 0 0 0-4.864 4.864zM114.905 340.643a4.857 4.857 0 0 0 4.284 5.377c5.706.649 8.922.322 19.892.409a4.861 4.861 0 0 0 4.864-4.864 4.861 4.861 0 0 0-4.864-4.864c-11.218-.076-13.951.206-18.8-.342-2.692-.357-5.076 1.614-5.376 4.284zM192.305 341.564a4.861 4.861 0 0 0 4.864 4.864h19.36a4.861 4.861 0 0 0 4.864-4.864 4.861 4.861 0 0 0-4.864-4.864h-19.36a4.861 4.861 0 0 0-4.864 4.864zM79.642 249.26a4.861 4.861 0 0 0-6.693 1.591 62.02 62.02 0 0 0-7.828 19.375 4.856 4.856 0 0 0 3.714 5.785c2.504.583 5.199-1.014 5.785-3.714a52.375 52.375 0 0 1 6.612-16.344 4.865 4.865 0 0 0-1.59-6.693zM465.987 359.633a4.854 4.854 0 0 0-6.873.185 4.858 4.858 0 0 0 .185 6.873 74.545 74.545 0 0 1 11.537 13.974 4.863 4.863 0 1 0 8.198-5.234 84.064 84.064 0 0 0-13.047-15.798zM92.852 242.667a52.776 52.776 0 0 1 15.333-8.745 4.865 4.865 0 0 0 2.897-6.241c-.926-2.522-3.719-3.809-6.241-2.897a62.584 62.584 0 0 0-18.145 10.35 4.865 4.865 0 0 0 6.156 7.533zM222.271 220.989h-19.365a4.861 4.861 0 0 0-4.864 4.864 4.861 4.861 0 0 0 4.864 4.864h19.365c2.688 0 4.864-2.175 4.864-4.864s-2.175-4.864-4.864-4.864zM487.861 393.946c-.85-2.546-3.581-3.904-6.156-3.078a4.874 4.874 0 0 0-3.078 6.156 73.494 73.494 0 0 1 3.558 17.75 4.865 4.865 0 0 0 9.7-.722 83.305 83.305 0 0 0-4.024-20.106zM69.953 311.118a4.871 4.871 0 0 0 6.503 2.247 4.867 4.867 0 0 0 2.247-6.503 52.685 52.685 0 0 1-4.954-16.929c-.313-2.665-2.769-4.603-5.396-4.265a4.864 4.864 0 0 0-4.265 5.396 62.18 62.18 0 0 0 5.865 20.054zM82.093 328.122a62.56 62.56 0 0 0 17.028 12.088 4.863 4.863 0 1 0 4.227-8.759 52.95 52.95 0 0 1-14.387-10.217 4.863 4.863 0 1 0-6.868 6.888zM241.632 220.989a4.861 4.861 0 0 0-4.864 4.864 4.861 4.861 0 0 0 4.864 4.864h19.36a4.861 4.861 0 0 0 4.864-4.864 4.861 4.861 0 0 0-4.864-4.864zM451.344 354.08a4.871 4.871 0 0 0-1.843-6.631 83.186 83.186 0 0 0-18.976-7.804c-2.57-.708-5.263.812-5.971 3.415a4.864 4.864 0 0 0 3.415 5.971 73.095 73.095 0 0 1 16.743 6.892 4.876 4.876 0 0 0 6.632-1.843zM438.514 487.96a73.405 73.405 0 0 1-17.318 5.272 4.865 4.865 0 0 0 1.663 9.585 83.154 83.154 0 0 0 19.617-5.975 4.86 4.86 0 0 0 2.46-6.422 4.853 4.853 0 0 0-6.422-2.46zM410.138 346.447a4.865 4.865 0 0 0 4.864-4.74 4.872 4.872 0 0 0-4.74-4.987l-19.484-.019a4.861 4.861 0 0 0-4.864 4.864 4.861 4.861 0 0 0 4.864 4.864l19.237.019h.123zM486.949 428.905c-2.631-.466-5.158 1.335-5.61 3.976a73.648 73.648 0 0 1-5.22 17.347 4.862 4.862 0 0 0 2.489 6.412 4.867 4.867 0 0 0 6.412-2.489 83.275 83.275 0 0 0 5.904-19.636 4.861 4.861 0 0 0-3.975-5.61zM383.373 494.33a4.861 4.861 0 0 0-4.864 4.864 4.861 4.861 0 0 0 4.864 4.864h19.36a4.861 4.861 0 0 0 4.864-4.864 4.861 4.861 0 0 0-4.864-4.864zM453.196 485.433a4.859 4.859 0 0 0 6.826.831 83.855 83.855 0 0 0 14.473-14.516 4.868 4.868 0 0 0-.85-6.826 4.854 4.854 0 0 0-6.826.85 74.366 74.366 0 0 1-12.791 12.834 4.858 4.858 0 0 0-.832 6.827zM247.845 494.33H228.48a4.861 4.861 0 0 0-4.864 4.864 4.861 4.861 0 0 0 4.864 4.864h19.365c2.688 0 4.864-2.175 4.864-4.864s-2.176-4.864-4.864-4.864zM376.281 341.564a4.861 4.861 0 0 0-4.864-4.864h-19.36a4.861 4.861 0 0 0-4.864 4.864 4.861 4.861 0 0 0 4.864 4.864h19.36a4.86 4.86 0 0 0 4.864-4.864zM267.205 494.33a4.861 4.861 0 0 0-4.864 4.864 4.861 4.861 0 0 0 4.864 4.864h19.361a4.861 4.861 0 0 0 4.864-4.864 4.861 4.861 0 0 0-4.864-4.864zM305.926 494.33a4.861 4.861 0 0 0-4.864 4.864 4.861 4.861 0 0 0 4.864 4.864h19.36a4.861 4.861 0 0 0 4.864-4.864 4.861 4.861 0 0 0-4.864-4.864zM337.56 341.564a4.861 4.861 0 0 0-4.864-4.864h-19.36a4.861 4.861 0 0 0-4.864 4.864 4.861 4.861 0 0 0 4.864 4.864h19.36a4.86 4.86 0 0 0 4.864-4.864zM344.652 494.33a4.861 4.861 0 0 0-4.864 4.864 4.861 4.861 0 0 0 4.864 4.864h19.36a4.861 4.861 0 0 0 4.864-4.864 4.861 4.861 0 0 0-4.864-4.864zM160.39 494.33a4.861 4.861 0 0 0-4.864 4.864 4.861 4.861 0 0 0 4.864 4.864h9.728a4.861 4.861 0 0 0 4.864-4.864 4.861 4.861 0 0 0-4.864-4.864zM20.103 419.937c0 21.507 24.039 53.992 44.207 77.456 7.626 8.869 21.334 8.896 28.984 0 20.163-23.46 44.202-55.944 44.202-77.456 0-32.366-26.329-58.694-58.694-58.694s-58.699 26.328-58.699 58.694zm58.699-48.966c26.998 0 48.966 21.968 48.966 48.966 0 14.25-15.257 40.17-41.856 71.12-3.572 4.161-10.649 4.161-14.221 0-26.604-30.955-41.861-56.875-41.861-71.12 0-26.998 21.969-48.966 48.972-48.966z" fill="#5c8ffc" opacity="1" data-original="#5c8ffc" class=""></path><path d="M74.46 448.303c18.703 2.854 34.532-13.034 31.672-31.677-1.8-11.742-11.252-21.194-22.989-22.989-18.623-2.857-34.545 12.968-31.677 31.677 1.8 11.737 11.257 21.189 22.994 22.989zm7.211-45.052c7.457 1.14 13.703 7.386 14.848 14.848a17.962 17.962 0 0 1-20.586 20.591c-7.462-1.145-13.708-7.391-14.853-14.848a17.96 17.96 0 0 1 20.591-20.591zM352.584 7.943c-50.201 0-91.041 40.839-91.041 91.041 0 35.301 43.894 91.639 70.061 122.086 11.048 12.852 30.888 12.873 41.96-.005 26.162-30.442 70.056-86.78 70.056-122.081 0-50.202-40.839-91.041-91.036-91.041zm13.599 206.785c-7.161 8.337-20.021 8.349-27.203 0-43.029-50.064-67.709-92.252-67.709-115.745 0-44.834 36.479-81.313 81.313-81.313s81.308 36.479 81.308 81.313c0 23.493-24.68 65.682-67.709 115.745z" fill="#5c8ffc" opacity="1" data-original="#5c8ffc" class=""></path><path d="M359.092 59.764c-27.98-4.299-51.655 19.507-47.375 47.375 2.688 17.541 16.815 31.672 34.356 34.361 27.739 4.263 51.692-19.29 47.38-47.38-2.694-17.542-16.825-31.668-34.361-34.356zm-11.547 72.122c-13.171-2.019-24.196-13.048-26.215-26.219-3.269-21.35 14.749-39.566 36.289-36.289 13.167 2.019 24.196 13.043 26.219 26.215 3.287 21.48-14.887 39.558-36.293 36.293zM223.468 338.453c0 15.955 13 28.931 28.984 28.931 13.186 0 24.318-8.873 27.793-20.956h13.726a4.861 4.861 0 0 0 4.864-4.864 4.861 4.861 0 0 0-4.864-4.864H281.3c-.913-15.166-13.483-27.231-28.848-27.231-15.983 0-28.984 13.001-28.984 28.984zm28.984-19.256c10.592 0 19.208 8.64 19.208 19.256 0 10.587-8.616 19.204-19.208 19.204-10.616 0-19.256-8.616-19.256-19.204 0-10.616 8.64-19.256 19.256-19.256z" fill="#5c8ffc" opacity="1" data-original="#5c8ffc" class=""></path></g></g></svg>