<svg width="26" height="23" viewBox="0 0 26 23" fill="none" xmlns="http://www.w3.org/2000/svg">
<path d="M19.5922 6.48409C19.4058 6.43048 19.2362 6.33423 19.0982 6.2038C18.9602 6.07337 18.8581 5.91276 18.8009 5.7361C18.4782 4.69817 17.937 3.73315 17.21 2.89945C16.4831 2.06575 15.5854 1.3807 14.5714 0.885758C13.5574 0.390812 12.4481 0.09626 11.3107 0.019927C10.1732 -0.0564059 9.0313 0.0870671 7.95399 0.441664C6.87668 0.79626 5.88637 1.35461 5.04299 2.08292C4.19962 2.81123 3.52071 3.69436 3.04735 4.67888C2.57399 5.66339 2.31603 6.72881 2.28906 7.81068C2.2621 8.89254 2.4667 9.96835 2.89048 10.973C2.98749 11.1847 3.00796 11.421 2.94868 11.6449C2.88941 11.8689 2.75373 12.0679 2.56279 12.211C1.72378 12.802 1.06874 13.5972 0.666978 14.5126C0.265219 15.428 0.131697 16.4294 0.280543 17.4109C0.512828 18.7377 1.23867 19.9416 2.32633 20.8039C3.41399 21.6662 4.79138 22.1299 6.20849 22.1108H14.9719V14.5249L13.6095 15.8179C13.4107 16.0001 13.1446 16.1008 12.8683 16.0986C12.5921 16.0963 12.3278 15.9911 12.1324 15.8057C11.9371 15.6203 11.8262 15.3695 11.8238 15.1073C11.8214 14.8451 11.9276 14.5925 12.1196 14.4039L13.7907 12.818C14.3835 12.2556 15.1874 11.9396 16.0255 11.9396C16.8637 11.9396 17.6676 12.2556 18.2604 12.818L19.9315 14.4039C20.0321 14.4962 20.1124 14.6065 20.1676 14.7285C20.2228 14.8505 20.2519 14.9817 20.2531 15.1145C20.2543 15.2473 20.2277 15.379 20.1747 15.5019C20.1217 15.6248 20.0435 15.7364 19.9446 15.8303C19.8456 15.9242 19.728 15.9984 19.5985 16.0487C19.469 16.099 19.3302 16.1243 19.1903 16.1231C19.0504 16.122 18.9122 16.0944 18.7836 16.042C18.6551 15.9896 18.5388 15.9134 18.4416 15.8179L17.0792 14.5249V22.0978C19.1765 22.058 21.1865 21.2937 22.7326 19.9483C24.2787 18.6028 25.2548 16.7684 25.478 14.7889C25.6455 12.9746 25.1526 11.1606 24.0815 9.64937C23.0105 8.13814 21.426 7.02096 19.5922 6.48409Z" fill="#699EFF"/>
</svg>
