<svg width="26" height="30" viewBox="0 0 26 30" fill="none" xmlns="http://www.w3.org/2000/svg">
<path fill-rule="evenodd" clip-rule="evenodd" d="M17.5916 1.1796L24.7465 8.70473C24.9358 8.90441 25.0417 9.1697 25.0417 9.4464V22.5526C25.0417 26.1383 22.145 29.1663 18.7144 29.1663H7.43257C3.80143 29.1663 0.958374 26.261 0.958374 22.5526V18.9783C0.958374 18.3878 1.43292 17.9086 2.01763 17.9086C2.60235 17.9086 3.07689 18.3878 3.07689 18.9783V22.5526C3.07689 25.1028 4.94825 27.0269 7.43257 27.0269H18.7144C20.9967 27.0269 22.9232 24.9773 22.9232 22.5526V9.87571L17.5153 4.18765V6.05324C17.5153 7.48524 18.6692 8.65338 20.0872 8.65623C20.6719 8.65766 21.145 9.13689 21.1436 9.72881C21.1422 10.3179 20.6691 10.7957 20.0844 10.7957H20.083C17.4998 10.79 15.3968 8.66336 15.3968 6.05324V2.98956H7.43257C5.07113 2.98956 3.07689 4.93503 3.07689 7.23849V13.1633C3.07689 13.7538 2.60235 14.233 2.01763 14.233C1.43292 14.233 0.958374 13.7538 0.958374 13.1633V7.23849C0.958374 3.77545 3.92289 0.850123 7.43257 0.850123H16.3741C16.3877 0.848818 16.4001 0.845125 16.4122 0.841501C16.4267 0.837205 16.4407 0.833008 16.4561 0.833008C16.4726 0.833008 16.4874 0.837436 16.5021 0.841851C16.5138 0.84536 16.5255 0.84886 16.538 0.850123H16.8275C17.1156 0.850123 17.391 0.968506 17.5916 1.1796ZM13.5147 20.8212C13.5147 21.4117 13.0402 21.8909 12.4554 21.8909C11.8707 21.8909 11.3962 21.4117 11.3962 20.8212V14.0349L9.19716 16.267C8.78475 16.6864 8.11389 16.6864 7.69866 16.2699C7.28484 15.8534 7.28343 15.1759 7.69583 14.7566L11.7055 10.6902V10.6888C11.8976 10.4963 12.1631 10.3764 12.4554 10.3764C12.7492 10.3764 13.0133 10.4963 13.2054 10.6888V10.6902L17.215 14.7566C17.6275 15.1759 17.626 15.8534 17.2122 16.2699C17.0046 16.4767 16.7349 16.5808 16.4637 16.5808C16.1925 16.5808 15.9213 16.4767 15.7137 16.267L13.5147 14.0349V20.8212Z" fill="#6CC24A"/>
</svg>
