<svg width="24" height="24" viewBox="0 0 24 24" fill="none" xmlns="http://www.w3.org/2000/svg">
<circle cx="12" cy="12" r="11.5" fill="#EC9D54" stroke="white"/>
<g clip-path="url(#clip0_3415_1318)">
<rect width="13.7143" height="13.7143" transform="translate(5.14258 5.14258)" fill="#EC9D54"/>
<path d="M18.4404 10.5248C17.5541 9.08138 15.5381 6.65967 11.9998 6.65967C8.46153 6.65967 6.44553 9.08138 5.55925 10.5248C5.28526 10.968 5.14014 11.4787 5.14014 11.9997C5.14014 12.5207 5.28526 13.0314 5.55925 13.4745C6.44553 14.918 8.46153 17.3397 11.9998 17.3397C15.5381 17.3397 17.5541 14.918 18.4404 13.4745C18.7144 13.0314 18.8595 12.5207 18.8595 11.9997C18.8595 11.4787 18.7144 10.968 18.4404 10.5248ZM17.4661 12.8762C16.705 14.114 14.9821 16.1968 11.9998 16.1968C9.01753 16.1968 7.29468 14.114 6.53353 12.8762C6.37075 12.6128 6.28453 12.3093 6.28453 11.9997C6.28453 11.69 6.37075 11.3865 6.53353 11.1231C7.29468 9.88538 9.01753 7.80253 11.9998 7.80253C14.9821 7.80253 16.705 9.8831 17.4661 11.1231C17.6289 11.3865 17.7151 11.69 17.7151 11.9997C17.7151 12.3093 17.6289 12.6128 17.4661 12.8762Z" fill="white"/>
<path d="M11.9997 9.14258C11.4346 9.14258 10.8822 9.31015 10.4124 9.62409C9.94252 9.93804 9.57632 10.3843 9.36007 10.9063C9.14382 11.4284 9.08724 12.0029 9.19748 12.5571C9.30772 13.1114 9.57984 13.6204 9.97942 14.02C10.379 14.4196 10.8881 14.6917 11.4423 14.802C11.9966 14.9122 12.571 14.8556 13.0931 14.6394C13.6152 14.4231 14.0614 14.0569 14.3753 13.5871C14.6893 13.1172 14.8569 12.5648 14.8569 11.9997C14.856 11.2422 14.5546 10.516 14.019 9.98042C13.4834 9.4448 12.7572 9.14349 11.9997 9.14258ZM11.9997 13.714C11.6607 13.714 11.3292 13.6135 11.0473 13.4251C10.7654 13.2367 10.5457 12.969 10.4159 12.6558C10.2862 12.3425 10.2522 11.9978 10.3184 11.6653C10.3845 11.3327 10.5478 11.0273 10.7875 10.7875C11.0273 10.5478 11.3327 10.3845 11.6653 10.3184C11.9978 10.2522 12.3425 10.2862 12.6558 10.4159C12.969 10.5457 13.2367 10.7654 13.4251 11.0473C13.6135 11.3292 13.714 11.6607 13.714 11.9997C13.714 12.4544 13.5334 12.8904 13.2119 13.2119C12.8904 13.5334 12.4544 13.714 11.9997 13.714Z" fill="white"/>
</g>
<defs>
<clipPath id="clip0_3415_1318">
<rect width="13.7143" height="13.7143" fill="white" transform="translate(5.14258 5.14258)"/>
</clipPath>
</defs>
</svg>
